{"asset": {"generator": "Microsoft Simplygon glTF Exporter (Microsoft::glTF)", "version": "2.0"}, "accessors": [{"bufferView": 0, "componentType": 5126, "count": 2671, "type": "VEC3", "max": [0.05405781790614128, 0.14943087100982666, 0.08970319479703903], "min": [-0.05404805392026901, 0.00904096383601427, -0.08875077217817307]}, {"bufferView": 1, "componentType": 5126, "count": 2671, "type": "VEC3", "max": [0.9999915957450867, 0.9999994039535522, 0.9998928308486938], "min": [-0.9999996423721313, -0.9999032616615295, -0.9999756217002869]}, {"bufferView": 2, "componentType": 5126, "count": 2671, "type": "VEC2", "max": [0.9775020480155945, 0.9935249090194702], "min": [0.006475090980529785, 0.011247575283050537]}, {"bufferView": 3, "componentType": 5126, "count": 2671, "type": "VEC4", "max": [0.9999552965164185, 0.9999145269393921, 0.9998909831047058, 1.0], "min": [-0.9994832873344421, -0.9998511672019958, -0.9999026656150818, 1.0]}, {"bufferView": 4, "componentType": 5123, "count": 12714, "type": "SCALAR"}], "bufferViews": [{"buffer": 0, "byteOffset": 0, "byteLength": 32052, "target": 34962}, {"buffer": 0, "byteOffset": 32052, "byteLength": 32052, "target": 34962}, {"buffer": 0, "byteOffset": 64104, "byteLength": 21368, "target": 34962}, {"buffer": 0, "byteOffset": 85472, "byteLength": 42736, "target": 34962}, {"buffer": 0, "byteOffset": 128208, "byteLength": 25428, "target": 34963}], "buffers": [{"byteLength": 153636, "uri": "16374_PS01_S01_NV01_RQP2_3.0_0.bin"}], "images": [{"name": "Basecolor_0", "uri": "16374_PS01_S01_NV01_RQP2_3.0_Basecolor_0.jpg", "mimeType": "image/jpeg"}, {"name": "Normals_0", "uri": "16374_PS01_S01_NV01_RQP2_3.0_Normals_0.jpg", "mimeType": "image/jpeg"}, {"name": "Metalness_0", "uri": "16374_PS01_S01_NV01_RQP2_3.0_OcclusionRoughnessMetallic_0.jpg", "mimeType": "image/jpeg"}], "materials": [{"pbrMetallicRoughness": {"baseColorTexture": {"index": 0}, "metallicRoughnessTexture": {"index": 2}}, "normalTexture": {"index": 1}, "occlusionTexture": {"index": 2}, "name": "SimplygonCastMaterial"}], "meshes": [{"name": "ProcessedGeometry", "primitives": [{"attributes": {"TANGENT": 3, "NORMAL": 1, "POSITION": 0, "TEXCOORD_0": 2}, "indices": 4, "material": 0}]}], "nodes": [{"mesh": 0, "name": "ProcessedMeshNode"}], "samplers": [{}], "scenes": [{"nodes": [0], "name": "cascade-scene-0"}], "textures": [{"name": "Basecolor_0", "source": 0}, {"name": "Normals_0", "source": 1}, {"name": "Metalness_0", "source": 2}], "scene": 0, "extras": {"16374_P01_S01_NV01_RQP2_PipelineVersion_3.0": {"box_dimensions": [0.10815959423780441, 0.14047397673130035, 0.1786051020026207], "area": 0.11745591149162865, "volume": 0.0008843488339901104, "profile": "RQP2", "state": null, "article_number": "16374"}}}